<svg data-v-5fb9a85b="" version="1.1" id="club_svg__Vrstva_1" xmlns="http://www.w3.org/2000/svg" x="0" y="0" viewBox="0 0 32 32" xml:space="preserve" class=""><path data-v-5fb9a85b="" d="M28.29 14.5a7.36 7.36 0 00-4.43-1.49c-.89 0-1.74.17-2.54.46a7.612 7.612 0 002.23-4.26c.07-.41.11-.83.11-1.26 0-4.24-3.43-7.68-7.67-7.68a7.68 7.68 0 00-7.67 7.68c0 .43.04.85.11 1.26a7.674 7.674 0 002.23 4.26c-.79-.29-1.64-.46-2.54-.46-1.67 0-3.2.56-4.43 1.49C1.9 15.85.74 17.98.74 20.39c0 4.18 3.54 7.37 7.38 7.38 1.42 0 2.71-.44 3.8-1.13.57-.36 1.08-.8 1.53-1.28.07-.08.15-.16.21-.25.74-1.01.9-2 1.11-1.96.04.01.08.07.1.15.09.36.02 1.27 0 1.45-.06.72-.17 1.87-.82 3.21-.43.9-1.1 1.86-1.56 2.23-.33.26-.61.57-.92.85-.01.01-.05.04-.09.1-.06.08-.14.19-.12.31.02.17.19.26.21.27h8.82c.02-.01.19-.1.21-.27.01-.13-.07-.23-.12-.31-.04-.06-.08-.09-.09-.1-.31-.28-.59-.59-.92-.85-.46-.37-1.12-1.33-1.56-2.23-.65-1.34-.76-2.49-.82-3.21-.02-.19-.09-1.09 0-1.45.02-.09.05-.14.1-.15.2-.04.36.95 1.11 1.96.07.09.14.17.21.25.45.48.96.91 1.53 1.28 1.09.69 2.37 1.13 3.8 1.13 3.84-.01 7.38-3.2 7.38-7.38.02-2.41-1.14-4.54-2.93-5.89z"></path></svg>