<svg data-v-5fb9a85b="" version="1.1" id="spade_svg__Vrstva_1" xmlns="http://www.w3.org/2000/svg" x="0" y="0" viewBox="0 0 32 32" xml:space="preserve" class=""><path data-v-5fb9a85b="" d="M30.21 18.25c-.19-1.16-.61-2.34-1.66-4.02-2.04-3.25-4.19-4.8-6.42-6.85A45.1 45.1 0 0116 .4a45.1 45.1 0 01-6.13 6.98c-2.23 2.05-4.38 3.6-6.42 6.85-1.05 1.68-1.48 2.86-1.66 4.02-.14.89-.53 3.28.91 5.63.4.65 1.87 2.83 4.63 3.35 1.5.28 2.72-.04 3.23-.21.46-.15 2.02-.68 3.08-2.13.75-1.02.92-2.03 1.12-1.99.24.05.12 1.39.1 1.63-.06.73-.18 1.9-.83 3.26-.44.91-1.11 1.89-1.58 2.26-.33.26-.62.58-.93.87-.01.01-.05.04-.09.1-.06.08-.14.19-.13.32.02.17.19.26.21.27h8.98c.02-.01.2-.1.21-.27.01-.13-.07-.24-.13-.32-.04-.06-.08-.09-.09-.1-.31-.29-.6-.6-.93-.87-.47-.37-1.14-1.35-1.58-2.26-.66-1.36-.77-2.53-.83-3.26-.02-.23-.14-1.57.1-1.63.21-.05.37.97 1.12 1.99 1.07 1.45 2.63 1.98 3.08 2.13.5.16 1.73.49 3.23.21 2.76-.52 4.23-2.69 4.63-3.35 1.44-2.36 1.06-4.74.91-5.63z"></path></svg>